<svg width="300" height="80" viewBox="0 0 300 80" xmlns="http://www.w3.org/2000/svg">
  <rect x="10" y="10" width="280" height="60" rx="30" ry="30" fill="#007AFF" cursor="pointer"/>

  <g transform="translate(150, 40)" cursor="pointer">
    
    <path d="M17.5 16l-4.3-4.3c1-1.3 1.6-2.9 1.6-4.7 0-4.1-3.4-7.5-7.5-7.5S-0.2 2.9-0.2 7s3.4 7.5 7.5 7.5c1.8 0 3.4-0.6 4.7-1.6l4.3 4.3c0.4 0.4 1 0.4 1.4 0s0.4-1 0-1.4zM7.3 12.5c-3 0-5.5-2.5-5.5-5.5s2.5-5.5 5.5-5.5 5.5 2.5 5.5 5.5-2.5 5.5-5.5 5.5z" fill="#ffffff" transform="translate(-90, -8) scale(1.1)"/>
    
    <text x="15" y="0" font-family="'-apple-system', 'Helvetica Neue', 'Roboto', sans-serif" font-size="20" font-weight="500" fill="#ffffff" text-anchor="middle" dominant-baseline="central">
      点我查看资源
    </text>
  </g>
</svg>