<?xml version="1.0" encoding="UTF-8"?>
<svg version="1.1" viewBox="0 0 1402 1600" width="789" height="900" xmlns="http://www.w3.org/2000/svg">
<path transform="translate(424,8)" d="m0 0h11l2 1 2 5 2 1 1 4v11l24 1 1 4-3 16-1 8-1 19v18l2 14 4 8 2-1 6 16 7 14 3 4 4 11 4 20 2 1 35 4 2 2 6 1 32 1h59v-2h-53v-1l53-2 9-3 7-2 4 1v-2h-5v-2l7-1h11l-3-4 1-5 5-5 39-2-1-2 10-2 20-1 6-2 11-1v-4l8-2h11l6-2 4-2 1-2 9-2 3-1-1-2 7-2 10-2 11-2 2-1v-2l9-3v-2l34-6 1-4h3l-1-4 10-2v-2h5l1-8 3 1 3-5 2-11h4l2-6h12l5 2 4 5 3 5h1v7l1 7 9 3 1 4v19l-1 22-3 10-3 29-1 2v12l2 27 4 30 1 110-1 2h-3l-2 25-3 15-2 9-5 5-7 22-3 1-3 10-2 4h-5l-1 3-2 1-5 12-3 8-2-2-3 6-2 1-2 6-3 2-7 2 1 3-2 1-2 6-3-1 1 7 7 4 4 3 2 1v2l5 1-1 3 7 1 10 4 6 2 1 2 16 2h21v-10l-4-15-4-17-2-16-1-2v-38l5-24 5-19 5-25 2-3 4-2 2-7 3-4 2-9 3-3 2 1 1-3h2l-1-4h2l-1-4 3-5 2 2 3-4 4 1-1-4 3-3-1-2 4-2h4v-7l4-2 1-3 4-2-2-1h2v-2l8-2 1-4 2-2v2h3l1-8 6-1 5-1-2-1 1-2 6-2 2 1v-3l4-1v-4l5-1 1-2 3 1 2-3 4-1v-3l8-1-1-4 7-2 12-2 2-1h6v-2h-6l6-3 1-5 1-2h11l3 1v-2l9-2v-3l20-3 30-1h20l24 1h12l7 3v3l10 2 5 3 10-1v2l2 1v3l2 5 5 2 2 2 2 11 4 1 3 1 2 10 2 5 5 2-1 7h-2l-1 24-5-1-3-9-6-1-4 10-2 4-2 3-6 1-7-2-9 3h-12v2h-3l-2 4h-2v10l2 3 2 7v16l-4 5h-19l-4-1-2 1-26 1v5l-5 1-2 4h-3l-2 5-4 7h-3l-2 3-3-1-1 9-9 28-4 20-1 8-2-1-3 19v10l-1 1v45l5 16 5 17 7 14 3 13 5 2 4 5 10 30 1 2 2-1 16 34 5 12 6 25 4 20 1 2v63l-4 26-5 18h-2l-1 7-5 14-2 1-3 8h-3l-2 6-2 4h-4l-1 9-3 4-1-2-4 5-2 8h-4l-1 3-5 2-1 4h-2l-1 4h-4l-1 5-3 3 2 1h-2v5l-4 1-1 4-5 2-1 3-3 3-1 2h-4v2h3v2h-3l-2 5h-3l-2 4h-3v4l-6 2-2 6-3 3-7 1-4 4-1 3-4 1-2 5h-4l-1 5-3 1-1 2-4 1-1 4-6 2-2-1v3l-8 1v2h2v2l-8 1v5l-5 1 5 22v17l-4 20-18 53-15 43-17 50-15 43-17 50-15 43-10 29-8 16-6 9-9 10-17 13-16 8-22 6-6 1h-17l-16-3-36-12-43-15-47-16-43-15-47-16-43-15-47-16-69-24-17-8-12-9-8-8-9-12-7-11-5-13-5-20v-23l1-7h-4v-2l4-1-7-1-2-3-2-4v-21l3-15 4-3 2-6 2-1 2-7 3-1v-4l5-1 1-2 1-11 1-5-5-13-4-7-2-13-7-19-1-8v-48l4-14 6-28 3-5 4-13 3-9 1-2h2l3-9 4-3 1-6 3-2 1-4h3l2-5 1-7 2 3 2-6v-2l3-1 2-5h3l5-5v-3l5 1 1-3 4 1v-2l-2-1h2l1-3h2l1-3h5v-4l6-3h2v-16l-5-19-2-8-3-5-3-3-4-9-2-6-2-1-1-5 2-1h7v-2l-2-1h3l2-5v-6l-5-4-4-13v-13h11l8-2 1-4 4-4 1-4-8-4-20-4-16-3v-2h-7l-1 2h-11l-3-2-14-1v3l-27 3-16 1-5-12-4-11-3-16-1-13 2-2 1-23-22 2-1 6-3 1h-10l-5-2-11-1-1-5-1-2v-15h3l-1-4 3-6h2v3l2 1-1-4 2-4 4-1 1-7 2-1 1-5h6v-5l1-3 2-12h4l2-9 3 1 1-8-8-42-1-17-2-8v-11l2-5v-6h-9l-26-5-18-2-1-2-11-1-16-2-12-5-2-4-2-17v-3l3-1 1-3 4-1v-2l3-1-2-1v-2h3v-6l1-1h5l1-7 4-8 3-1 3-6 4-4 4-10-2-3-7-2-14-2 2 2-10-1-11-4v-2l-4 1-1-2-12-5-3-2v-2l-8-2h-5v-2l-3-1-2-6-6-7-1-2v-10l2-3 13-1h6v-4l2 1-1 3h3v-4h21l-2 1v2l7-1-4-1v-1l10-1v-4l10-1 5-2 8-1 2 1v-3l5-1-1-2 11-3h3v-3l14-1-1-3h7l-1-4 1-2h2l1-3 12-1-1-3 3-1 1-5 2-1 3-21 1-16 3-12 2-1 5-14 1-10 4-8h3v-2h2l1-8 6-1v-4l3-3h2v-11l3-1 2-3h3l-1-3 2-4 3 1v-2h-3l1-2h2l2-4h4l1-6 4-4v-13l10-2v-3h3l1-8 2-1v2h2v-3h6v-5h3v-6h5l2-8 4-3 3 2 1-8h5v-6h3l1-4h4l-1-4h2v-6l2-2 3 1v-2l2-1 1-5 4-4 4-16 2-10 2-1 3-12 5-6zm477 69m-30 33m-38 14 4 1zm-8 5m-487 17m370 14m527 89m1 1m-187 20m214 6m-228 2m-780 29m743 0m-10 9m-792 8v2h5v-2zm7 0v1h6v-1zm1022 4m-1057 2 4 1zm11-1-2 2h3zm790 9m233 4 1 4 1-4zm-1006 37m725 37m-42 71 1 2zm-17 20m4 14m60 24v1h13v-1zm25 17-7 2-5 6-7 2-12 6-9 6-5 2v4l1 3 22 11 1 3 14 10 4 2v2l9 6 6 8 8 7 8 9 5 7 5 5 8 13 10 18 8 14 12 27 6 19 6 23 1 1 2 21 1 19h3v2h-2v2h4l1-2v-28l-4-41-4-20-8-20-6-14-9-15-5-8-3-3-1-3-3-3-12-19-5-8-3-5-3-2-3-7-8-17-4-6-7-20-3-7-3-11zm200 80m1 1m-866 12m-22 1m2 0v1h8v-1zm533 11-4 1v3l-21 2-19 1-25 5-10 4-4 5-1 10 2 4 8 4 2 4 6 3 7 3-1 3 3 2 1 4 4 1 2 3h2l-1 4 3 6 8 3 3 8v7l-2 6-2 4-2-1v10h3v2h2l3 13 3 15 3 3h2l3 5h2l2 4h2l-1 4 3 3 6 11 4 4 4 2 5 9 5 3 4 2 5 9 5 3 6 3v3l5 3 2-1v2l4 1-1 3 6 3 3 3 7 5 4 2v2l5 1 2 5 3 1 1 3 3 1 2 4h2l2 4 5 1v3h4v-4l4-1 3-3h2v-5h2v-2l4-1 1-6h2l1-8 1 2h2l2-3v-5h2l3-9h2l6-15 6-24 1-8v-32l-3-15-5-14-8-10-2-2-2-5-3-2-2 1-1-6h-2v-2h-2l-1-3-2 1-2-5h-4v-4l-5-5-2-1-2 1-2-6h-3l-3-5-4-4h-2l-2-4h-2l-2-4-4-2-1-2h-2v-2h-2l-1-3h-2v-2l-7 1-1 2h-3l-2 2-5-2v2h-2l-2-4-6-5-5-5-3-5h-2v-2l-7-4h-3l-1-3zm40 27m44 27m2 2m9 9m271 125 1 2zm-327 23m-425 6-1 2 4-1zm-9 9 2 2v-2zm453 0m-490 243 1 2z" fill="#383738"/>
<path transform="translate(717,734)" d="m0 0h7l3 3 1 11 8 4v7l-4 17-5 19-4 15-7 19-5 14-3 9-3 3-3 11 6 1 8 3 5-1 3-1 6-15 4-9 5-12 5-15 3-3 2 7 3 48v14l6 1 98 34 43 15 36 12 33 12 13 7 9 7 9 9 12 17 6 12 2 5 3 2h-3l5 22v17l-4 20-18 53-15 43-17 50-15 43-17 50-15 43-10 29-8 16-6 9-9 10-17 13-16 8-22 6-6 1h-17l-16-3-36-12-43-15-47-16-43-15-47-16-43-15-47-16-69-24-17-8-12-9-8-8-9-12-7-11-5-13-5-20v-23l1-7h-4v-2h5l1-6 20-59 15-43 23-68 15-43 18-52 17-50 6-18-1-5-4-6-8-10-4-7-4-19-5-11v-6l5 1 21 24v2l5 2 2 2 5 1 3-10 8-17 9-12 10-9 17-12 14-6 14-4 10-2h21l17 4 15 6 12 7 11 9 9 11 1 2h5v-5l3-2h-2v-2l4 1 1-5h3l3-3-1-2h2v-2l2-1v-2l4-2 4-1-4-1 3-2 2-1 1-4 4-4 3-1-3-2 9-2 1-5 6-5 7-11z" fill="#02A9FC"/>
<path transform="translate(424,8)" d="m0 0h11l2 1 2 5 2 1 1 4v11l24 1 1 4-3 16-1 8-1 19v18l2 14 4 8 2-1 6 16 7 14 3 4 4 11 4 20 2 1 35 4 2 2 6 1 32 1h59v-2h-53v-1l53-2 9-3 7-2 4 1v-2h-5v-2l7-1h11l-3-4 1-5 5-5 22-1h34l6 4 3 3 11 34 12 41 10 33 7 24 28 92 18 60 1 56v18l-7 37-4 11-16 24-9 10-24 16-10 5-35 7h-8l-34-7-12-6-20-14-7-5-22-33-7-32-1-5v-12h-98l-3-1 1 9-7 35-4 10-17 25-5 6-19 13-11 7-7 3-29 6-14 1-34-7-8-4-28-19-6-7-14-22-5-6-8-42-1-17-2-8v-11l2-5v-6h-9l-26-5-18-2-1-2-11-1-16-2-12-5-2-4-2-17v-3l3-1 1-3 4-1v-2l3-1-2-1v-2h3v-6l1-1h5l1-7 4-8 3-1 3-6 4-4 4-10-2-3-7-2-14-2 2 2-10-1-11-4v-2l-4 1-1-2-12-5-3-2v-2l-8-2h-5v-2l-3-1-2-6-6-7-1-2v-10l2-3 13-1h6v-4l2 1-1 3h3v-4h21l-2 1v2l7-1-4-1v-1l10-1v-4l10-1 5-2 8-1 2 1v-3l5-1-1-2 11-3h3v-3l14-1-1-3h7l-1-4 1-2h2l1-3 12-1-1-3 3-1 1-5 2-1 3-21 1-16 3-12 2-1 5-14 1-10 4-8h3v-2h2l1-8 6-1v-4l3-3h2v-11l3-1 2-3h3l-1-3 2-4 3 1v-2h-3l1-2h2l2-4h4l1-6 4-4v-13l10-2v-3h3l1-8 2-1v2h2v-3h6v-5h3v-6h5l2-8 4-3 3 2 1-8h5v-6h3l1-4h4l-1-4h2v-6l2-2 3 1v-2l2-1 1-5 4-4 4-16 2-10 2-1 3-12 5-6zm-86 138m-83 161m-59 17v2h5v-2zm7 0v1h6v-1zm-35 6 4 1zm11-1-2 2h3z" fill="#383738"/>
<path transform="translate(663,921)" d="m0 0 36 12 64 22 119 41 55 19 9 5 7 8 4 8 2 8v8l-5 16-19 56-15 43-17 50-15 43-17 50-15 43-5 13-4 6-11 8-12 4h-8l-36-12-59-20-43-15-131-45-15-5 1-5 7-11 7-16 18-53 15-43 19-56 15-43 16-47 15-43 16-46z" fill="#FCFCFC"/>
<path transform="translate(1182,260)" d="m0 0h12l12 2 17 8 17 6 6 4 8 9 11 19 4 7v7l-5-1-3-9-6-1-4 10-2 4-2 3-6 1-7-2-9 3h-12v2h-3l-2 4h-2v10l2 3 2 7v16l-4 5h-19l-4-1-2 1-26 1v5l-5 1-2 4h-3l-2 5-4 7h-3l-2 3-3-1-1 9-9 28-4 20-1 8-2-1-3 19v10l-1 1v45l5 16 5 17 7 14 3 13 5 2 4 5 10 30 1 2 2-1 16 34 5 12 6 25 4 20 1 2v63l-4 26-5 18h-2l-1 7-5 14-2 1-3 8h-3l-2 6-2 4h-4l-1 9-3 4-1-2-4 5-2 8h-4l-1 3-5 2-1 4h-2l-1 4h-4l-1 5-3 3 2 1h-2v5l-4 1-1 4-5 2-1 3-3 3-1 2h-4v2h3v2h-3l-2 5h-3l-2 4h-3v4l-6 2-2 6-3 3-7 1-4 4-1 3-4 1-2 5h-4l-1 5-3 1-1 2-4 1-1 4-6 2-2-1v3l-8 1v2h2v2l-8 1v5h-5l-9-18-10-14-9-10-7-6-8-5 1-4 7-4 8-6 4-5 7-4 4-4 11-9 13-14 7-8 6-8 9-14 10-18 5-17 4-21 1-10v-25l-4-40-3-17-5-17-10-25-9-19-12-18-11-15-15-23-9-16-12-28-13-38-4-11-5-21-3-15-2-26 2-24 7-30 5-16 8-18 8-13 10-14 8-10 8-7 3-3h2v-2l11-9 17-12 11-8 10-6 16-9 21-9 19-6 15-4 6-1zm43 68m-23 14 1 4 1-4zm-51 300m1 1m13 214 1 2z" fill="#383738"/>
<path transform="translate(688,162)" d="m0 0h34l6 4 3 3 11 34 12 41 10 33 7 24 28 92 18 60 1 56v18l-7 37-4 11-16 24-9 10-24 16-10 5-35 7h-8l-34-7-12-6-20-14-7-5-22-33-7-32-1-5v-12h-98l-3-1 1 9-7 35-4 10-17 25-5 6-19 13-11 7-7 3-29 6-14 1-34-7-8-4-28-19-6-7-14-22-5-6-8-42-1-17-2-8v-11l2-5v-6h-9v-1h10v-27l14-47 15-50 19-63 12-40 19-64 7-22 7-6h58l6 5-1 5-6 5h-51l-4 16-15 49-14 47-32 107-16 53-2 7v18l8-12 8-11 22-15 11-7 26-6 14-3 10 1 30 6 9 4 11 7 16 11 5 5 7 9 14 22 4 17v4h109l1-8 3-12 10-16 11-16 8-7 27-18 22-5 18-4h7l37 8 9 5 25 17 7 8 10 15v-18l-16-53-19-64-18-60-10-33-17-57-3-10-50-1-6-3-2-2 1-5 5-5z" fill="#02AAFC"/>
<path transform="translate(1156,235)" d="m0 0h20l24 1h12l7 3v3l10 2 5 3 10-1v2l2 1v3l2 5 5 2 2 2 2 11 4 1 3 1 2 10 2 5 5 2-1 7h-2l-1 17-3-3-7-13-7-11-8-9-12-5-16-6-10-5-12-2-51 1-13 3-21 6-16 6-19 9-16 10-11 7-9 7-14 10-4 2-1 3h-2v2l-8 7-3 3h-2l-2 4-9 11-10 15-8 16-7 17-7 29-2 9-2 25 2 25 5 24 5 18 8 22 7 21 13 30 11 19 17 25 11 15 9 15 8 17 6 15 7 20 3 14 4 35 1 13v25l-3 22-4 17-5 13-9 16-10 15-18 20-7 8-11 9-8 7-5 3-5 5h-2l-1 3-6 3-3 1-1 3-6-2-24-9-37-13-36-12-37-13-1-2h2v-3l-7-1-8-4v-3l-8-3 2-2-7-3v-2l-6-2v-3l-3-2 1-2-6-3v-3l-5-1 3-1-7-4-3-7h-2l-4-7-1-22v-16l5 1 2 1-1 4 4 2 2 5 3 5v2l3 1 1 2 5 3 4 7v2l4 1 6 4 4 7v2l4 1 5 3 3 3-1 1 5 3h2v2l4 1 1 3 5 3v2l5 2 4 3 5 2-1 3 5 1 3 5 3 3 4 2 1 3 5 4 6 2-2 2h3l1-3 4-1 1-3 3-2 1-3h2v-2l3-1 2-6h2l1-8 2 1 1-1 2-6h2l1-8 2-2 2 1 1-6 4-9 6-24 1-8v-32l-3-15-5-14-7-9-3-3-2-5-4-1-1-6h-2v-2h-2l-1-2h-3l-1-4-4-1-3-5-4-4h-2l-3-5-3-1-3-5-3-3-3-1-1-3-5-4-4-3v-2h-2v-2h-2l-3-3v-2l-7 1-1 3h-2l-3 2-7-1-6-7-8-7-2-4-2-1v-2l-10-4-1-2-4-1-3 1-1 2-7 2-33 2-25 5-10 4-3 5-1 3-8 6-12 10-11 8-6 2 1-4 5-9-3-1-14 5-9-1-5-4-1-2v-8l7-9 4-4 8-4 17-5 22-8 28-7 8-3 10-1 10-2 9-1 3-9 2-2 11-1 9 3v3l7 2 1 3 6 2 3 2h6l4-2 2-9-1-17-3-9-3-3-1-5h-2l-7-10v-11l4-6 4-1 25-1 19-3 28-7 7-3v-2l-16-6-15-8-16-11-14-12-1-3-4-2-4-5-7-8-2-4-3-2v-29h3l13 21 7 7v2l4 2 8 7 2 4 13 9 15 9 12 5 4 1 20 1h21v-10l-4-15-4-17-2-16-1-2v-38l5-24 5-19 5-25 2-3 4-2 2-7 3-4 2-9 3-3 2 1 1-3h2l-1-4h2l-1-4 3-5 2 2 3-4 4 1-1-4 3-3-1-2 4-2h4v-7l4-2 1-3 4-2-2-1h2v-2l8-2 1-4 2-2v2h3l1-8 6-1 5-1-2-1 1-2 6-2 2 1v-3l4-1v-4l5-1 1-2 3 1 2-3 4-1v-3l8-1-1-4 7-2 12-2 2-1h6v-2h-6l6-3 1-5 1-2h11l3 1v-2l9-2v-3l20-3zm79 14m1 1m-187 20m214 6m-228 2m-37 29m-10 9m-19 22m-43 207v1h13v-1zm25 17-7 2-5 6-7 2-12 6-9 6-5 2v4l1 3 22 11 1 3 14 10 4 2v2l9 6 6 8 8 7 8 9 5 7 5 5 8 13 10 18 8 14 12 27 6 19 6 23 1 1 2 21 1 19h3v2h-2v2h4l1-2v-28l-4-41-4-20-8-20-6-14-9-15-5-8-3-3-1-3-3-3-12-19-5-8-3-5-3-2-3-7-8-17-4-6-7-20-3-7-3-11z" fill="#060505"/>
<path transform="translate(424,8)" d="m0 0h11l2 1 2 5 2 1 1 4v11l24 1 1 4-3 16-1 8-1 19v18l2 14 4 8 2-1 6 16 7 14 3 4 4 11 4 20 2 1 35 4 2 2 6 1 32 1h59v-2h-53v-1l53-2 9-3 7-2 4 1v-2h-5v-2l20-2 3 1 50 1 2 4v5l-14 2v2l-20 4-20 8-21 8-36 17-10 7-4 1h-9l-6-4-3-18-1-1h-11l-16 2-15-2-16-3-36-6-13-4-12-4-14-3-12-5-9-3-10-5-1-2 25-1 6-5-1-5-4-3h-58l-6 5-8 25-18 61-20 66-21 70-17 57-2 7-1 27h-17l-19-4-18-2-1-2-11-1-16-2-12-5-2-4-2-17v-3l3-1 1-3 4-1v-2l3-1-2-1v-2h3v-6l1-1h5l1-7 4-8 3-1 3-6 4-4 4-10-2-3-7-2-14-2 2 2-10-1-11-4v-2l-4 1-1-2-12-5-3-2v-2l-8-2h-5v-2l-3-1-2-6-6-7-1-2v-10l2-3 13-1h6v-4l2 1-1 3h3v-4h21l-2 1v2l7-1-4-1v-1l10-1v-4l10-1 5-2 8-1 2 1v-3l5-1-1-2 11-3h3v-3l14-1-1-3h7l-1-4 1-2h2l1-3 12-1-1-3 3-1 1-5 2-1 3-21 1-16 3-12 2-1 5-14 1-10 4-8h3v-2h2l1-8 6-1v-4l3-3h2v-11l3-1 2-3h3l-1-3 2-4 3 1v-2h-3l1-2h2l2-4h4l1-6 4-4v-13l10-2v-3h3l1-8 2-1v2h2v-3h6v-5h3v-6h5l2-8 4-3 3 2 1-8h5v-6h3l1-4h4l-1-4h2v-6l2-2 3 1v-2l2-1 1-5 4-4 4-16 2-10 2-1 3-12 5-6zm-86 138m-83 161m-59 17v2h5v-2zm7 0v1h6v-1zm-35 6 4 1zm11-1-2 2h3z" fill="#050404"/>
<path transform="translate(392,436)" d="m0 0 12 2 25 5 16 10 14 10 11 15 10 16 6 30v11l-6 29-5 9-13 19-5 5-10 7-15 10-10 3-20 4h-16l-27-6-12-7-12-8-8-6-8-12-11-16-7-35 1-10 6-28 16-24 6-7 6-4h3l1-3 19-12z" fill="#060505"/>
<path transform="translate(709,436)" d="m0 0 35 7 12 7 11 8 8 6 7 9 12 18 4 15 4 21-1 11-6 27-10 16-10 14-14 10-14 9-15 4-20 4-11-1-27-6-16-10-14-10-8-11-12-18-5-21-2-10v-10l6-29 5-10 10-14 6-9 27-18 8-3z" fill="#373737"/>
<path transform="translate(850,602)" d="m0 0 19 2 33 13 17 11 11 9 16 15 12 11 8 11 14 21 14 25 8 20 10 28 3 11 2 16v33l-2 16-5 16-9 23-9 19-12 14h-2l-1 4-4 1-1 5-6 4-4 6h-3l-2 5-7 4-2 5-10-3-33-11 2-1 1-4 4-2 3-3 2-4h3l1-6 3-1 6-11 5-8 5-10 6-15 7-20 2-10 1-10v-40l-3-16-7-17-8-13-12-15-7-8-11-12-8-7-10-10-8-7-19-19-10-8-1-7-1-24-2-10-4-11 1-4z" fill="#373637"/>
<path transform="translate(577,827)" d="m0 0h12l9 4 6 5 7 12 2 8v9l-12 36-16 47-15 43-16 47-15 43-15 44-8 23-2 1-11-7-14-7-14-4-20-3 1-7 15-43 18-53 15-43 17-50 30-86 6-9 10-7z" fill="#FDFDFD"/>
<path transform="translate(1138,358)" d="m0 0 5 1 6 7 1 2v10l-4 6-8 10-4 7-2 1-4 15-7 22-4 20-1 8-2-1-3 19v10l-1 1v45l5 16 5 17 7 14 3 13 5 2 4 5 10 30 1 2 2-1 16 34 5 12 6 25 4 20 1 2v63l-4 26-5 18h-2l-1 7-5 14-2 1-3 8h-3l-2 6-2 4h-4l-1 9-3 4-1-2-4 5-2 8h-4l-1 3-5 2-1 4h-2l-1 4h-4l-1 5-3 3 2 1h-2v5l-4 1-1 4-5 2-1 3-3 3-1 2h-4v2h3v2h-3l-2 5h-3l-2 4h-3v4l-6 2-2 6-3 3-7 1-4 4-1 3-4 1-2 5h-4l-1 5-3 1-1 2-4 1-1 4-6 2-2-1v3l-8 1v2h2v2l-8 1v5h-5l-9-18-2-3 1-6 9-6 13-10 8-7 11-9 7-7 8-7 12-13 11-13 10-13 8-9 8-10 14-19 9-15 7-15 5-13 5-18 2-19v-29l-3-31-6-23-10-27-39-78-8-20-5-21-1-6-1-16v-45l2-25 10-40 7-18 8-16 8-13 12-14zm13 284m1 1m13 214 1 2z" fill="#050404"/>
<path transform="translate(898,75)" d="m0 0h12l5 2 4 5 3 5h1v7l1 7 9 3 1 4v19l-1 22-3 10-3 29-1 2v12l2 27 4 30 1 110-1 2h-3l-2 25-3 15-2 9-5 5-7 22-3 1-3 10-2 4h-5l-1 3-2 1-5 12-3 8-2-2-3 6-2 1-2 6-3 2-8 2-8 7-5-2-7-7-1-2v-7l9-14 11-14 13-21 9-17 9-22 5-17 2-14 1-16v-59l-2-59v-57l1-18 2-14-1-9-2-3-7-3h-7l-13 5-9 4-13 5-14 3-12 7-12 4-24 9-28 8-10 1v2l-9 2-9 1-5-15-6-5-2-1h-20l3-2-1-2 10-2 20-1 6-2 11-1v-4l8-2h11l6-2 4-2 1-2 9-2 3-1-1-2 7-2 10-2 11-2 2-1v-2l9-3v-2l34-6 1-4h3l-1-4 10-2v-2h5l1-8 3 1 3-5 2-11h4zm3 2m-30 33m-38 14 4 1zm-8 5m-117 31m213 256m-42 71 1 2z" fill="#050404"/>
<path transform="translate(444,865)" d="m0 0 4 2 11 12 5 8 2 1v7l-20 59-13 37-19 55-21 62-15 43-16 47-2 5-8-1-2-3-2-4v-21l3-15 4-3 2-6 2-1 2-7 3-1v-4l5-1 1-2 1-11 1-5-5-13-4-7-2-13-7-19-1-8v-48l4-14 6-28 3-5 4-13 3-9 1-2h2l3-9 4-3 1-6 3-2 1-4h3l2-5 1-7 2 3 2-6v-2l3-1 2-5h3l6-5h6l8-8 9-7zm-40 30 2 2v-2zm-37 243 1 2z" fill="#050404"/>
<path transform="translate(439,289)" d="m0 0 9 3 2 1v2l3-1 14 6v2l9 3 2 1v2l7 2v2l6 2v2l5 2 10 8 2 4 2 1 4 7 1 5 3 1 5 12 2 18 1 17 1 2v24h1v13l-1 4h2v6l2 4v10h2l-1 5h2l2 9 1 4v4l4 2v6l-5 3-4 1h-33l-7-2-10-16-7-10-5-7-19-13-14-9-13-4-2-4-2-5-1-8-3-5-1-5-1-7v-12l2-24 10-40 9-22z" fill="#4B6F2D"/>
<path transform="translate(431,266)" d="m0 0 8 1 34 12 19 10 14 11 12 12 11 14 8 13 6 16 2 7 2 19 3 47 1 3 12-2 16-4 20-10 2-3 11-3h8l4 4 1 3v9l-4 20-3 3-4 10-5 5-3 5-9 18-5 3-4 2-4 5-13 4-9 3-5 3-27 1h-33l-4-18v-3l6 1h33l8-3v-6l-4-4 1-5-2-1 1-2-2-1v-6h-2l1-5h-2l-1-9-2-3 1-8h-2v-12h-1v-29l-1-6-1-17-2-14-5-12-2-1-3-7-7-8-1-3-8-6-5-3v-2l-4-1-2-1v-2l-7-2v-2l-9-3-4-2v-2l-9-2-8-3v-2h-4v-2h-5l-7 14-6 16-5 23-3 9-2 16-1 13v12l1 7 1 5 3 5 2 12h2l1 4-5 1-19-4-3-3-1-21v-50l3-16 7-21 13-28 8-14z" fill="#182A0B"/>
<path transform="translate(295,573)" d="m0 0 5 5 14 22 6 7 27 18 1 2-2 20-3 8v11l3 6 10 7 16 9 25 10 20 6 23 5 4-1 3-11 7-6h11l14 6 13 8 10 5 9 3 15 4 6 4 3 8-2 6h-2l-1 3-2 1h-9l-21-6h-8l-12 2v6l3 6-1 9-5 6-14 5-1 4 12 3 10 4 4 4v6l-4 5-6-1-8-3-4-1h-20l-6 3-11 9h-1v-5l11-11-1-6-4-16v-8l8-3 5-2 2-5 2-13-26-5-19-5-7-2-1-1h-9l-4 2-40 2-9 3-9-1-4-5-6-20-1-6v-27l1-3v-12h-9l-7 2-10 1-1 6-3 1h-10l-5-2-11-1-1-5-1-2v-15h3l-1-4 3-6h2v3l2 1-1-4 2-4 4-1 1-7 2-1 1-5h6v-5l1-3 2-12h4l2-9 3 1 1-6zm-9 82m-22 1m2 0v1h8v-1z" fill="#050404"/>
<path transform="translate(337,280)" d="m0 0 2 1-33 110-17 57-3 14-2-1-28-2-24-5-13-4-1-5 9-14 11-18 8-12 12-15 6-14v-8h-2l-5-6h-9l-18 3h-21l-12-2-8-5-1-2 27-7 34-15 25-12 11-6 11-5 3-3 5-3 9-6 5-1v-3l6-3v-2l9-4z" fill="#383738"/>
<path transform="translate(421,69)" d="m0 0h20l2 1 1 5 1 30 5 26 7 16 5 10 5 15v3h-8l-16-4-3-5-3-2h-58l-6 5-8 25-18 61-1-2h-3l-1 4-18 6h-2l-2 4-14 9-4-1 1-12 5-21 6-16 9-19 9-15 8-12 7-10 9-13 12-16 8-10 10-12 10-14 9-13 7-11 8-11z" fill="#383738"/>
<path transform="translate(888,132)" d="m0 0h7l8 4 2 3-3 25-2 14v39l-3 4h-11l-10-3-8-5-13-10-6-8-4-4 1-5 7-9 11-9-1-9-6-4-4-1-6 2-14 7-11 9-7 6-5 5-12 11-8 7-6 8-3 1-2 5h-2l-1 5-2 1-2-1-2 5h-3l-2 9-2 1-1 3h-5v5l-4 1-10-34-7-23 1-4 16-2v-2l17-4 30-9 20-8 11-4 8-5 18-4 29-12z" fill="#383738"/>
<path transform="translate(437,903)" d="m0 0 4 1 1 2v18l-1 20 1 12h2l-2 9-18 52-23 67-5 15-2-1-4-12v-2h-2l-7-20-2-5v-44l5-19 5-16 5-14 10-21 8-13 12-18h2v-2h2l1-3z" fill="#373637"/>
<path transform="translate(354,481)" d="m0 0h15l4 1 1 9 3-1 1 2v13h16l3 1 1 6-3 3h-2l-1 3-7 1 3 14 3 1-1 3h2l2 5 2 3 2 4 2 5 1 2 3 1 1 4 2 1 2 4 1 3 5 2v2l6 1 4 2v2l10 2 1 3 11 3-1 2-2-1v6l-5 1h-37l-13-5-5-4-5-2-1-3-8-7-1-3h-2l-4-7-2-1-1-6h-2l-4-6v-2l-4-2-4-9-2-1v-2l-11-3v-2l-9-1-3-2v-2h-2l-2-9v-11l2-8h3v-5l6-2 4-2 8-1v-3l2-1z" fill="#02A9FC"/>
<path transform="translate(717,734)" d="m0 0h7l3 3 1 11 8 4v7l-4 17-5 19-4 15-7 19-5 14-3 9-3 3-3 10-9-2-14-5-1-1-3-16-1-9h2v-7l2-3 3-1h-4v-3h5l1-9 3 1 1-7h-4l-2 6-2-1 2-4-2 1-3 9-5 4-4-2-5-9-3-6 4-1v-5l3-2h-2v-2l4 1 1-5h3l3-3-1-2h2v-2l2-1v-2l4-2 4-1-4-1 3-2 2-1 1-4 4-4 3-1-3-2 9-2 1-5 6-5 7-11z" fill="#FCFCFC"/>
<path transform="translate(673,504)" d="m0 0 75 1 4 5v4l5 1-2 6h1v5l-5 3h-2l1 3-3 4-5 3-6 1-26 1-19 3-24 7-7 2v2l-9 3-1 3h-4l-1 4-16 1-5-1-4-15-2-10v-6l7-2v-4l10-2-1-2 10-1v-2l-2-1 8-2h3v-2l-2-1 4-2 11-1 3-1 1-2h5l-3-3z" fill="#050404"/>
<path transform="translate(1183,264)" d="m0 0h11l13 3 8 4 16 6 12 5 6 7 3 4v2l3 1 13 24 1 2-5-1-3-9-6-1-4 10-2 4-1-1-2-10-4-3-6-1h-25l-25 2-12 3-8 7-2 6v7l3 8v5l-11 10-6-1-4-4-1-3v-13l3-14 5-14 7-17 6-9 7-9 8-9z" fill="#FDFDFD"/>
<path transform="translate(507,334)" d="m0 0 5 1 3 4v4l3 1 5 12 1 8v30l-2 5-7 2-16-3-16-6-4-1-16-1-5-6-3-9-4 3-6 21-6 11-6 12-3 1-4-1-5-12-3-22v-18l2-14 2-5 5 1 10 7 12 6 21-1 17-5 7-2 3-7 6-8z" fill="#8A8571"/>
<path transform="translate(585,636)" d="m0 0 3 3v15l-3 29-5 10-7 5-6 1h-9l-14-3-12-5-13-9-7-6v-2l-4-2-9-8-9-6 2-4 16-8 9-4h10l13 2h21l12-5z" fill="#050404"/>
<path transform="translate(853,153)" d="m0 0 7 3 4 3 1 9-10 9-14 12-6 7-5 5-10 9-13 13-4 1-1 5-2 2-1 4h-4l-2 4h-4l1 3-5 7v3l-4 1-2 5h-3l-1 4h-3l-1 5h-5v5l-4 1-8-25v-5h3v-5h5l1-4h2l1-6 1-3 3-1 2-4h3l2-5 2-1 2-5 3-1 7-9 14-13 8-6 6-7 14-11 15-8z" fill="#050404"/>
<path transform="translate(451,1194)" d="m0 0h10l11 4 7 7 5 9 3 11-1 9-5 10-9 8-10 4-7 2-9-1-10-5-8-9-4-10-1-4v-11l4-9 5-6 9-6z" fill="#FDFDFD"/>
<path transform="translate(888,136)" d="m0 0h5l3 3 7 2v8l-4 21-1 30v15l-2 4-11-1-11-4-9-6-9-7-9-10 1-4 9-9 11-9 2-6-1-9-3-5v-3l8-4 9-4z" fill="#FDFDFD"/>
<path transform="translate(385,178)" d="m0 0h21l4 23 4 10 7 14 1 8-8 3-14 5-3 3-12 4-1 4-6 2v3l-8 3-6 2h-3l1 4h-3l2-10 13-42 10-34z" fill="#050404"/>
<path transform="translate(392,436)" d="m0 0 12 2 25 5 16 10 14 10 11 15 10 16 6 30v11l-3 14-2-3v-8h-4l-2-15-2-4-2-13-4-1v-5l-4-1-6-12-6-4-7-2v-4h-5l-2-4h-3l-3-3-2-3v-2l-4-2-4-4-1-4-3-1-39-1-2 1h-33l5-4 11-7z" fill="#182A0C"/>
<path transform="translate(861,1027)" d="m0 0 5 2 6 5v2l-3 2-5 14 12 3 13 5 4-1 6-4 4 2 5 10-1 2-8-1-8-3-5 1-10 13-13 13-10 7-5 2 7 11 14 15 14 11 1 2-8 3-4 2-8-7-9-9-10-14-4-8-6 1-19 5-21 2h-10l-1-3 22-3 15-4 12-5 4-3-4-17-1-20-8 7-5 6h-2l-3-8v-3l19-8 3-5 4 2-1 3-3 2 1 16 4 15 2 7 7-4 13-12 8-10 5-8-43-15-14-4-8-2v-6l4 1 28 10 13 4 1-7z" fill="#121110"/>
<path transform="translate(740,259)" d="m0 0h3l14 46 4 14v3h-17l-8-1-4-3h-3l-1-8-6 1-6 3h-2v3l-3 1h-8l-7-7-1-5 2-10 5-1 2-5 6-1-1-4 5-1 1-3 4-1 1-4 5-2 4-4 4 1v-2l-3-1 4-1 1-5 4-1z" fill="#050404"/>
<path transform="translate(1201,313)" d="m0 0h34l3 3-1 5-3 3-1 3-6 3h-14v2l-13 2-5 2-1 3 2 7 5 5 4 6 1 8-2 4-6 3h-12l-11-1-5-3-3-7 1-5 3-6-1-9-1-7 1-10 5-5 11-4z" fill="#060505"/>
<path transform="translate(715,542)" d="m0 0h10l9 1 1 3-14 4-1 5 4 7 1 13 3 1v3l6 1v4h4v10h-4l-1 5h-9l-4-1-1-5h-4v-8l3-1 1-7-1-11-3-4-1-9h-9l-12 3-3 2 1 6 4 9 2 13 8 3 1 4v13l-2 7-3 1h-8l-6-2-1-4h-3v-11l2-4-2-9-2-14-1-3-4-3h-7l-9 2h-6v2l2 1-5 2h-14l-2-5 1-1h9l1-3 8-1v-2l9-4h4l2-4 22-4 9-1 6-3z" fill="#BB947D"/>
<path transform="translate(737,983)" d="m0 0 7 6 3 4-4 1 5 18 8 16 8 11v2l-7 2-4 2-6-12-5-17-2-17v-2l-14 11-11 7-3 3 7 6-1 2h-3l-3 11-3 9 10-3 18-8 4-1 4 8v3l-24 5-14 2-7 20 9 3 22 7 4 1 2-4 7-10 1 4-3 9 1 9-3 2-10-1-33-11-6-4-1-5 5-17 12-34 1-2-18 7-1-3 13-7 14-10 12-11z" fill="#100F0E"/>
<path transform="translate(346,483)" d="m0 0h11l11 8 1 3v13l-6 9-4 8-10 5-10 1-11-1-7-3v-2h-2l-2-9v-11l2-8h3v-5l6-2 4-2 14-2z" fill="#FCFCFC"/>
<path transform="translate(1151,639)" d="m0 0 3 4 13 28 6 14 6 25 4 20 1 2v63l-4 26-5 18h-2l-1 7-5 14-2 1-3 8h-3l-2 6-2 4h-4l-1 9-3 4-1-2-4 5-2 8h-4l-1 3-5 2-1 4h-2l-1 4h-4l-1 5-3 3 2 1h-2v5l-4 1-1 4-5 2-1 3-3 3-1 2h-4v2h3v2h-3l-2 5h-3l-2 4h-3v4l-6 2-2 6-3 3-7 1-4 4-1 3-4 1-2 5h-4l-1 5-3 1-1 2-4 1-1 4-6 2-2-1v3l-8 1v2h2v2l-8 1v5h-5l-2-3v-3l7-2 16-11 21-18 5-1v-3h2v-2l3-1 5-6 8-7 7-8 11-12 10-13 4-5h2l2-4 7-9 11-14 4-5 12-18 10-18 9-26 5-19 1-9v-54l-3-23-3-15-4-15-12-31-6-14-2-3 1-3zm0 3m1 1m13 214 1 2z" fill="#4C4543"/>
<path transform="translate(422,75)" d="m0 0h16l1 2 1 25 2 10 3 10v7l-2 2h-17l-16-8-8-6-3-5 1-7 10-13z" fill="#FDFDFD"/>
<path transform="translate(1047,270)" d="m0 0 4 2-15 10-10 6h-2v2h-2l1 4-3-1-9 7-12 11-17 17-6 8-4 6-9 14-11 23-6 17-8 31-3 26v24l3 23 8 32 3 10v5l-4 1-6-2h-21l-5-1v-1l25-1 2-1v-10l-4-15-4-17-2-16-1-2v-38l5-24 5-19 5-25 2-3 4-2 2-7 3-4 2-9 3-3 2 1 1-3h2l-1-4h2l-1-4 3-5 2 2 3-4 4 1-1-4 3-3-1-2 4-2h4v-7l4-2 1-3 4-2-2-1h2v-2l8-2 1-4 2-2v2h3l1-8 6-1 5-1-2-1 1-2 6-2 2 1v-3l4-1v-4l5-1 1-2 3 1 2-3z" fill="#45413F"/>
<path transform="translate(777,499)" d="m0 0 12 1v13l-3 1-1 5-4 1-1 4-3 1-1 3-5 1-2 3-4 2h-3v2l-9 2-1 10h2l2 3 1 9 1 5 7 1 1 4v10l-1 5h-3v3h-13l-3-4-2 1-1-9 1-5h3v-22l-3-1-1-5 4-1 2-6 5-3h3v-2h2l1-3h2v-14l-5-1-1-3h-4l-3-6v-4z" fill="#B69079"/>
<path transform="translate(898,75)" d="m0 0h12l5 2 4 5 3 5h1v7l1 7 9 3 1 4v19l-1 22-3 10-3 29-2 7h-1l-1 15h-1v-20l1-1 1-19 3-28 2-18v-8l-5-10-4-5-2-12-3-5-3-2h-9l-5 4-8 15-8 8-11 7-12 5-11 3-45 15-19 8-17 5-15 4-27 6-3 1h-20l3-2-1-2 10-2 20-1 6-2 11-1v-4l8-2h11l6-2 4-2 1-2 9-2 3-1-1-2 7-2 10-2 11-2 2-1v-2l9-3v-2l34-6 1-4h3l-1-4 10-2v-2h5l1-8 3 1 3-5 2-11h4zm3 2m-30 33m-38 14 4 1z" fill="#4A4442"/>
<path transform="translate(571,652)" d="m0 0h3v12l-2 15-3 7-8 1-18-5-12-6-6-5-5-5-5-4-2-6 9-3 20 1 4 1h9z" fill="#FDFDFD"/>
<path transform="translate(424,8)" d="m0 0h11l2 1 2 5 2 1 1 4v11l24 1 1 4-3 16-1 8h-1l-1-17-5-5-5-1-8 1-5-3-1-2-2-14-2-3h-8l-4 5-6 18-5 17-8 15-9 12-11 13-9 10-12 15-18 22-6 8-4 8-12 18-5 8h-2v-11l3-1 2-3h3l-1-3 2-4 3 1v-2h-3l1-2h2l2-4h4l1-6 4-4v-13l10-2v-3h3l1-8 2-1v2h2v-3h6v-5h3v-6h5l2-8 4-3 3 2 1-8h5v-6h3l1-4h4l-1-4h2v-6l2-2 3 1v-2l2-1 1-5 4-4 4-16 2-10 2-1 3-12 5-6z" fill="#4C4643"/>
<path transform="translate(159,328)" d="m0 0 2 1-1 3h3v-4h21l-2 1v2l2 1-3 1-33 2-3 1v13l12 11 15 8 21 8 13 2 27 2 2 1-1 6-8 12-8 13-7 11-8 10-7 11-1 2v15l5 2 11 5 9 3v1l-16-1-12-5-2-4-2-17v-3l3-1 1-3 4-1v-2l3-1-2-1v-2h3v-6l1-1h5l1-7 4-8 3-1 3-6 4-4 4-10-2-3-7-2-14-2 2 2-10-1-11-4v-2l-4 1-1-2-12-5-3-2v-2l-8-2h-5v-2l-3-1-2-6-6-7-1-2v-10l2-3 13-1h6zm9 2 4 1zm11-1-2 2h3z" fill="#534D4A"/>
<path transform="translate(746,814)" d="m0 0 2 2 1 5 3 48v13l-7-1-25-9 1-3 3-1 6-15 4-9 5-12 5-15z" fill="#FCFCFC"/>
<path transform="translate(336,565)" d="m0 0h2l2 5 1-3 5 4 4 5 3 8 3 3 4 2 1 5 4 2 6 5 2 6 6 1 6 4 13 4 13 2-4 2-5 1h-16l-27-6-12-7-3-9-2-1-1-13v-5l-5-6z" fill="#373736"/>
<path transform="translate(927,229)" d="m0 0h1l4 30 1 110-1 2h-3l-2 25-3 15-2 9-5 5-7 22-3 1-3 10-2 4h-5l-1 3-3 1 2-6 7-11 8-17 8-23 6-16 2-7 1-69z" fill="#423E3D"/>
<path transform="translate(511,338)" d="m0 0 4 3v2l3 1 3 18 1 19-4 3h-7l-13-5-15-5-3-3v-4l7-4 11-1 3-5 5-5 2-3h2l-1-3z" fill="#BF927A"/>
<path transform="translate(449,801)" d="m0 0 5 1 21 24v2l5 2 2 2 4 1-1 8-7 20h-3l-8-11-7-9-3-8-3-15-5-11z" fill="#FDFDFD"/>
<path transform="translate(1128,409)" d="m0 0h2l-3 11-6 19-4 20-1 8-2-1-3 19v10l-1 1v45l5 16 5 17 7 14 3 13 5 2 4 5 7 21 1 7-3-3-11-20-8-16-8-18-6-17-3-10-1-13v-44l1-28 4-13 7-25 7-16z" fill="#403D3C"/>
<path transform="translate(668,995)" d="m0 0 9 3 2 1h6l5-2 3 4 1 7h-5l-1 6-14 41 16-5h3l-1 3-19 10-10 7h-2l-2-10v-3l5-1 3-10 14-41-3-2-10-2z" fill="#110F0F"/>
<path transform="translate(392,436)" d="m0 0 12 2 7 2 1 4 3 1 1 2v6h-38l-2 1h-33l5-4 11-7z" fill="#373736"/>
<path transform="translate(403,564)" d="m0 0 6 2 1 3 5 2v2l6 1 4 2v2l10 2 1 3 11 3-1 2-2-1v6l-5 1h-31l-10-5 3-10 1-11z" fill="#F9FBFC"/>
<path transform="translate(382,187)" d="m0 0 3 1 2 7 1 15h4l2 11 3 3 1 4-5 3-1 2-8 3-5 2-8 1-1 4-3 1-1-4z" fill="#383738"/>
<path transform="translate(770,296)" d="m0 0h15l9 4 1 7v11l-2 7-1-2h-2l-1 17-2 7h-3l-14-46z" fill="#050404"/>
<path transform="translate(595,439)" d="m0 0 4 1v12l-4 1-2 5-4 2-6 8-15-1-6-2-1-3-3-2v-2l-2-1-1-5v-2h2v-2l17-1 14-4 5-3z" fill="#4B6E2D"/>
<path transform="translate(575,647)" d="m0 0 5 2v9l-3 22-5 9-7 2h-9l-12-3-11-6-13-10-6-5-6-9 1-4 3-2 5-1 23 1h20l9-2zm-4 5-16 3h-9l-4-1-20-1-9 3 2 6 9 7 5 5 7 5 10 4 16 4 7-1 3-9 2-13v-12z" fill="#3A3839"/>
<path transform="translate(860,117)" d="m0 0 2 1-3 3-11 3-45 15-19 8-17 5-15 4-27 6-3 1h-20l3-2-1-2 10-2 20-1 6-2 11-1v-4l8-2h11l6-2 4-2 1-2 9-2 3-1-1-2 7-2 10-2 11-2 2-1v-2l9-3v-2l17-3zm-27 7 4 1z" fill="#4C4442"/>
<path transform="translate(463,110)" d="m0 0 2 3 3 5 2-1 6 16 7 14 3 4 4 11 4 20 2 1 35 4 2 2 6 1 21 1 1 4h-21l-33-5-17-4-2-1-1-15-6-16-13-26-5-14z" fill="#484240"/>
<path transform="translate(1120,916)" d="m0 0 2 4-4 4 2 1h-2v5l-4 1-1 4-5 2-1 3-3 3-1 2h-4v2h3v2h-3l-2 5h-3l-2 4h-3v4l-6 2-2 6-3 3-7 1-4 4-1 3-4 1-2 5h-4l-1 5-3 1-1 2-4 1-1 4-6 2-2-1v3l-8 1v2h2v2l-8 1v5h-5l-2-3v-3l7-2 16-11 21-18 5-1v-3h2v-2l3-1 5-6 8-7 7-8 11-12 10-13 4-5h2z" fill="#59514E"/>
<path transform="translate(389,141)" d="m0 0h6l9 6 9 7 12 7-1 2h-40l-1-1-1-13 3-5z" fill="#050404"/>
<path transform="translate(719,550)" d="m0 0 1 2 1 6 3 4 1 13 3 1v3l6 1v4h4v10h-4l-1 5h-9l-4-1-1-5h-4v-8l3-1 1-7-1-11-3-4-1-9h-9l-9 1 4-2 3-1h12v2h3z" fill="#BD927A"/>
<path transform="translate(1182,262)" d="m0 0h12l10 3v1l-10-1h-11l-12 12-10 15-10 24-4 14-1 7v13l3 5 3 2 5-1 9-8-1-7-2-6v-7l3-7 8-7 12-3 25-2h25l8 2 4 5v10l-1 2-6 1-2-2 6-4v-6l-5-5-6-1h-19l-33 3-7 3-7 6-2 4v9l3 7v6l-8 7-4 6-6-1-6-5-2-7v-12l2-14 12-29 3-6 12-16 8-9z" fill="#8F8772"/>
<path transform="translate(295,573)" d="m0 0 3 4-9 20-11 21-9 10-5 5-3 4v11l3 3 3 1 24 1-2 1-1 6-3 1h-10l-5-2-11-1-1-5-1-2v-15h3l-1-4 3-6h2v3l2 1-1-4 2-4 4-1 1-7 2-1 1-5h6v-5l1-3 2-12h4l2-9 3 1 1-6zm-9 82m-22 1m2 0v1h8v-1z" fill="#574F4B"/>
<path transform="translate(306,650)" d="m0 0h10v13l-1 3v27l4 16 4 12 2 2 9 1 9-3h21v4l-27 3-16 1-5-12-4-11-3-16-1-13 2-2 1-23h-8z" fill="#464342"/>
<path transform="translate(439,367)" d="m0 0h6l2 3v9l-4 6-13 6-4-1-2 17-2-1-1-4v-26l2-7 7 1 3-2z" fill="#C0937B"/>
<path transform="translate(411,887)" d="m0 0 5 1-6 8-10 13-11 17-6 10-8 16-7 16-6 20-3 7h-1l1-10 4-17 3-5 4-13 3-9 1-2h2l3-9 4-3 1-6 3-2 1-4h3l2-5 1-7 2 3 2-6v-2l3-1 2-5h3zm-7 8 2 2v-2z" fill="#58514E"/>
<path transform="translate(310,598)" d="m0 0h3l6 8 3 2 1 5v8l-2 4-20 3-6 1 1-4 8-17 5-9z" fill="#383738"/>
<path transform="translate(1190,236)" d="m0 0h22l7 3v3l10 2 5 3 10-1v2l2 1v3l2 5 5 2 2 2 2 11 4 1 3 1 2 10 2 5 5 2-1 7h-2l-1 3-3-10-10-16-11-15-7-6-13-6-29-9-6-2z" fill="#5A5653"/>
<path transform="translate(351,587)" d="m0 0 2 2 2-1 1 3-1 1 6 4 12 9v2l6 1 6 4 13 4 13 2-4 2-5 1h-16l-24-5-2-4-1-10h-3l-2-8-3-2z" fill="#AF9079"/>
<path transform="translate(460,491)" d="m0 0h2v2l5 2 6 4 9 4 4 21v11l-3 14-2-3v-8h-4l-2-15-2-4-2-13-4-1v-5l-4-1z" fill="#383738"/>
<path transform="translate(764,504)" d="m0 0h18l3 1 1 4-2 5-2 1-1 3-3 2-3 5h-3l-3 3h-2l-2-9h-2l-2-8-3-1-1-5z" fill="#FDFDFD"/>
<path transform="translate(1128,409)" d="m0 0h2l-3 11-6 19-4 20-1 8-2-1-3 19v10l-1 1-1 38h-2v-39l1-28 4-13 7-25 7-16z" fill="#45413E"/>
<path transform="translate(1183,260)" d="m0 0h11l12 2 17 8 17 6 6 4 8 9 11 19 4 7v6l-3-3-12-22-5-5-6-8-12-5-20-8-7-3v-2l-10-2-12-1z" fill="#4A4643"/>
<path transform="translate(312,184)" d="m0 0 2 1-5 12-6 10-10 25-10 29h-1v-14l3-12 2-1 5-14 1-10 4-8h3v-2h2l1-8 6-1v-4z" fill="#474241"/>
<path transform="translate(1047,270)" d="m0 0 4 2-15 10-10 6h-2v2h-2l1 4-3-1-9 7-12 11-12 12h-2l1-9 4-2 1-3 4-2-2-1h2v-2l8-2 1-4 2-2v2h3l1-8 6-1 5-1-2-1 1-2 6-2 2 1v-3l4-1v-4l5-1 1-2 3 1 2-3z" fill="#756861"/>
<path transform="translate(367,1136)" d="m0 0 1 4-5 11-8 18-2 9 1 13 4 5h4l-2 7-8-1-2-3-2-4v-21l3-15 4-3 2-6 2-1 2-7 3-1v-4z" fill="#524E4C"/>
<path transform="translate(427,630)" d="m0 0 3 1v6l5 1 4 2v13l-3 5-5 1-6-1-1-4-2-1-1-5 3-12h-2l1-5z" fill="#B18F78"/>
<path transform="translate(415,571)" d="m0 0 7 1 8 4 1 2 13 2v3l4 1v10l-7 2 2 2-4 1-20 1-17-2-13-7-2-3 15 5h42l-1-4 1-2 3-1-12-2v-3l-11-2v-3l-9-3z" fill="#373636"/>
<path transform="translate(925,393)" d="m0 0h2l-2 14-2 7-1 6-5 5-7 22-3 1-3 10-2 4h-5l-1 3-3 1 2-6 7-11 8-17 8-23 5-14z" fill="#534D4A"/>
<path transform="translate(777,499)" d="m0 0 12 1v13l-3 1-1 5-4 1-1 4-3 1-1 3-8 1 1-2h2l1-3 4-1 3-5h2l1-4 2-1 1-8h-28l1 5 4 1v3l-5-1-1-3h-4l-3-6v-4z" fill="#BB927A"/>
<path transform="translate(159,328)" d="m0 0 2 1-1 3h3v-4h21l-2 1v2l2 1-3 1-33 2-3 1v13l12 11 6 4-4 1-9-1v-2l-3-1-2-6-6-7-1-2v-10l2-3 13-1h6zm9 2 4 1zm11-1-2 2h3z" fill="#3E3C3C"/>
<path transform="translate(780,144)" d="m0 0 4 1v2l-17 5-15 4-27 6-3 1h-20l3-2-1-2 10-2 20-1 6-2 11-1v-4l8-2h11l6-2z" fill="#4E4744"/>
<path transform="translate(396,444)" d="m0 0h14l1 4-43 1 1 4-26 1 5-4 8-5z" fill="#AC8E77"/>
<path transform="translate(238,308)" d="m0 0h14l-14 7-18 8-21 8-13-1-1-2 10-1v-4l10-1 5-2 8-1 2 1v-3l5-1-1-2 11-3h3zm-42 16v2h5v-2zm7 0v1h6v-1z" fill="#524A47"/>
<path transform="translate(422,73)" d="m0 0h16l2 3 2 23 5 25v6l-5 3h-15l-10-4-10-6-8-7-2-4 1-6 4-4-2 5 1 7 1 3 4 2 11 7 9 4h17l1-1v-7l-4-13-1-7-1-27-16 1-12 17-1-2 12-17z" fill="#908772"/>
<path transform="translate(388,636)" d="m0 0h15l3 3v11l-5 3-9-1-4-1-1-2v-9z" fill="#BA9179"/>
<path transform="translate(902,149)" d="m0 0h1v8l-3 21v39l-3 4h-11l-10-3-8-5-13-10-6-8-4-4 1-5 5-4 2 1-5 5 1 4 10 11 13 9 9 4 10 2h5l1-3v-23l1-22z" fill="#918773"/>
<path transform="translate(448,798)" d="m0 0h5l5 4 8 11 6 5 6 9 5 4 4 2h-5l-7-5-4-6-10-10-7-9-5-2 2 8 5 12 3 16 7 11 8 10 2 3-1 4-5-9-7-7-7-12-3-11-3-12-4-8v-6z" fill="#928773"/>
<path transform="translate(347,127)" d="m0 0h3v4l-5 5-5 7-2 6-8 14-11 16-3 5h-2v-11l3-1 2-3h3l-1-3 2-4 3 1v-2h-3l1-2h2l2-4h4l1-6 4-4v-13l10-2z" fill="#605A56"/>
<path transform="translate(411,446)" d="m0 0 5 1v6h-38l-2 1h-12l4-2-3-2 2-2h44z" fill="#353533"/>
<path transform="translate(663,176)" d="m0 0h2l-2 4-25 9-8 2v-2h-53v-1l53-2 9-3 7-2 4 1v-2h-5v-2z" fill="#413E3D"/>
<path transform="translate(260,635)" d="m0 0 1 2v11l3 3 3 1 24 1-2 1-1 6-3 1h-10l-5-2-11-1-1-5-1-2v-15zm26 20m-22 1m2 0v1h8v-1z" fill="#403E3D"/>
<path transform="translate(735,751)" d="m0 0 3 1v11l-7 26-4 15-5 17-11 26-2 4 1-8 5-14 7-19 5-19 4-15 4-17z" fill="#908772"/>
<path transform="translate(502,322)" d="m0 0 4 2 7 5v2h2l7 10 5 13 1 7v12l-2 2-3-10-1-9-5-12-2-1-3-7-7-8-1-3-2-1z" fill="#070905"/>
<path transform="translate(318,496)" d="m0 0 1 2 2 1h-3v16l1 9h2l3 3 9 2v2l8 1 3 2v2l2 1-5-1-2-1-12-1-5-3v-2l-4-2-1-3-3-1-2-7v-12l1-5h4z" fill="#4A4A46"/>
<path transform="translate(1126,236)" d="m0 0h9v2l-7 1-7 3-15 4-15 5-9 1-1-4 2-3h11l3 1v-2l9-2v-3z" fill="#4C4745"/>
<path transform="translate(571,651)" d="m0 0h5v11l-3 21-3 5-1 1h-12l-13-4-10-5-8-6-6-5-5-7 4 2 6 5 5 5 6 4 10 4 16 4 7-1 2-8 2-13 1-12z" fill="#BE927A"/>
<path transform="translate(1211,309)" d="m0 0h25l8 2 4 5v10l-1 2-6 1-2-2 6-4v-6l-5-5-6-1h-19l-33 3-7 3-7 6-2 4v9l3 7-1 5h-1l-4-13v-7l3-7 8-7 12-3z" fill="#9A8974"/>
<path transform="translate(1061,978)" d="m0 0m-1 1m-1 1 1 3-3 3h-2v2h-2l-1 6-5 2-1 4-6 2-2-1v3l-8 1v2h2v2l-8 1v5h-5l-2-3v-3l7-2 16-11 14-12z" fill="#574C47"/>
<path transform="translate(719,550)" d="m0 0 1 2 1 6 3 4 1 13 3 1v3l-6-1 2-4h-2l-3 11-2 1-1 3h3v4h-4v-8l3-1 1-7-1-11-3-4-1-9h-9l-9 1 4-2 3-1h12v2h3z" fill="#8E8672"/>
<path transform="translate(687,800)" d="m0 0 1 4-2 6h-2l-2 8-3 1-2-1v3h4l-1 2h-2l-2 9h-3l-4-13v-2h3l2-3h2l-1-4 2-1 2-5h2l-1 4 1-1 2-6 1 3 2-1z" fill="#645D54"/>
<path transform="translate(688,969)" d="m0 0 4 1 7 7 3 6v8l-3 4-5-1-2-7z" fill="#131211"/>
<path transform="translate(1149,879)" d="m0 0h1v9l-3 4-1-2-4 5-2 8h-4l-1 3-5 2-1 4h-2l-1 4h-4l-1 3v-5l11-13 7-9 8-11z" fill="#564B47"/>
<path transform="translate(512,652)" d="m0 0m-2 1h2v6l8 8v2l4 2 5 5 5 3 10 5 13 4 10 1-2 2h-9l-12-3-11-6-13-10-6-5-6-9 1-4z" fill="#383738"/>
<path transform="translate(752,510)" d="m0 0h4l3 3 3 1v14l-3 3h-2v2l-9 3 1-7 6-3-1-6 2-5-4-1z" fill="#383936"/>
<path transform="translate(278,284)" d="m0 0 3 1v8l-8 5-14 6-2-4 1-2h2l1-3 12-1-1-3 3-1 1-5z" fill="#474342"/>
<path transform="translate(744,571)" d="m0 0 4 1v3l2-1h7v10l-4 4-5-1-2-3-2 1-1-9z" fill="#968873"/>
<path transform="translate(362,1087)" d="m0 0 4 5 7 14 2 10 2 5v5h-3l-2 6h-1v-9l1-5-5-13-4-7z" fill="#534C4A"/>
<path transform="translate(1047,270)" d="m0 0 4 2-15 10-10 6h-2v2h-2l1 4-6-2v-2h2l1-2v-3l6-2 2 1v-3l4-1v-4l5-1 1-2 3 1 2-3z" fill="#5A4F4A"/>
<path transform="translate(715,728)" d="m0 0 8 1 5 6 1 12 2 3-4-2-1-11-2-2h-7l-7 10-6 7-2-1 4-8 4-6 4-8z" fill="#958873"/>
<path transform="translate(860,117)" d="m0 0 2 1-3 3-11 3-18 6h-7l-1-3 9-3v-2l17-3zm-27 7 4 1z" fill="#514945"/>
<path transform="translate(746,807)" d="m0 0 2 1 2 11v16h-1l-1-14-2-6-4 10-5 15-5 12-4 9-2 5-1-4 6-16 4-9 5-13 5-16z" fill="#948873"/>
<path transform="translate(419,750)" d="m0 0 10 1-6 6v9l3 6 8 9v4l-7 4 1-9-5-4-4-13z" fill="#BD9E89"/>
<path transform="translate(388,636)" d="m0 0 5 1-4 5v6l2-1 2-7h5l1 5v5l6-2v-5h1v7l-5 3-9-1-4-1-1-2v-9z" fill="#898470"/>
<path transform="translate(490,614)" d="m0 0h10v7l-4 2-2 4-7-1-1-2v-7l3-1z" fill="#CCAE9D"/>
<path transform="translate(603,543)" d="m0 0 2 1 3 14v7l-6-1v-2h-3v-14l3-2z" fill="#070606"/>
<path transform="translate(517,651)" d="m0 0 23 1 27 1v1l-12 2h-9l-4-1-20-1-8 2 1 6-4-3 1-6z" fill="#745F55"/>
<path transform="translate(388,508)" d="m0 0h4l3 5-10 3-3 2-8 1v-8l1-1z" fill="#FDFDFD"/>
<path transform="translate(892,466)" d="m0 0 1 3-4 9-3 8-2-2-3 6-2 1-2 6-3 2h-4l1-4 10-13 8-10zm-13 21 1 2z" fill="#4B4543"/>
<path transform="translate(1159,370)" d="m0 0 5 2 2 1 15 1 2 2-2 1-26 1v5l-5 1 6-12z" fill="#B9A08D"/>
<path transform="translate(349,453)" d="m0 0h13v2l3 2-2 1h-8l-3-2-1 2-1 1h-9v3h-9l4-4h3l1-3z" fill="#383737"/>
<path transform="translate(415,571)" d="m0 0 7 1 8 4 1 2 13 2v3l4 1v10h-9v-1h5l-1-4 1-2 3-1-12-2v-3l-11-2v-3l-9-3z" fill="#494943"/>
<path transform="translate(886,135)" d="m0 0h9l5 5-5-1-2-2-8 1-7 3-10 5h-2l5 11-1 9-3 5-7 5 2-4 5-4 1-4v-7l-6-8 1-3 14-7z" fill="#928773"/>
<path transform="translate(382,612)" d="m0 0 10 2 12 3 7 1-4 2-5 1h-16l-4-7z" fill="#B89179"/>
<path transform="translate(1042,799)" d="m0 0h1v19h3v2h-2v2h4l1-2v3h-2l-1 17-3 5h-1z" fill="#393839"/>
<path transform="translate(364,607)" d="m0 0 1 2 7 1 7 3v2l6 2 1 3-10-1-11-3-1-1z" fill="#383738"/>
<path transform="translate(285,472)" d="m0 0h1v10h-17l-14-3v-1l5-1h25z" fill="#3E3C3C"/>
<path transform="translate(163,364)" d="m0 0 25 10 10 3 1 2-11-1-9-1-1-2-12-5-3-2v-2l-2-1z" fill="#484240"/>
<path transform="translate(1259,272)" d="m0 0 5 2 2 10 2 5 5 2-1 7h-2l-1 3-3-10-10-16-1-2z" fill="#5D5450"/>
<path transform="translate(694,548)" d="m0 0h10l-2 2-15 3-4 5-2 3-3-1-5-6 1-2z" fill="#FDFDFD"/>
<path transform="translate(436,290)" d="m0 0 1 3-8 19-4 13-4 18-3 9h-2l2-9 7-29 5-13z" fill="#2D3229"/>
<path transform="translate(1144,334)" d="m0 0h1l1 16 3 5 3 2 5-1 9-8 3-1-2 4-6 5-4 6-6-1-6-5-2-7v-12z" fill="#8E8672"/>
<path transform="translate(159,328)" d="m0 0 2 1-1 3h3v-4h21l-2 1v2l2 1-3 1-14 1h-13v-2h5zm9 2 4 1zm11-1-2 2h3z" fill="#4C4945"/>
<path transform="translate(404,594)" d="m0 0h32l-1 4h-24l-7-3z" fill="#798E8A"/>
<path transform="translate(401,102)" d="m0 0v3l-1 7 2 5 4 2 11 7 9 4 17 1-1 2h-15l-10-4-10-6-8-7-2-4 1-6z" fill="#948873"/>
<path transform="translate(725,804)" d="m0 0 1 4-7 21-8 18-2 4 1-8 5-14 7-19z" fill="#928773"/>
<path transform="translate(345,578)" d="m0 0 4 2 7 7 4 2 1 5 4 2 6 5v2l-5-2-9-7-4-4-1-3-5 1-1-5z" fill="#3E4A34"/>
<path transform="translate(624,565)" d="m0 0h12l2 6 10 1-3 2h-15z" fill="#55524B"/>
<path transform="translate(1066,259)" d="m0 0 4 1-5 4-12 7-7-2 1-2 8-1-1-4 7-2z" fill="#4A4341"/>
<path transform="translate(1182,262)" d="m0 0h12l10 3v1l-10-1h-11l-12 12-3 5-2-2 6-8 8-9z" fill="#928773"/>
<path transform="translate(1211,309)" d="m0 0h25l8 2 4 5v10l-1 2-6 1-2-2 6-4v-6l-5-5-6-1-23-1z" fill="#928773"/>
<path transform="translate(1203,335)" d="m0 0h5l-2 1v10l2 5-9-6-2-3 1-5zm-1 7 1 4 1-4z" fill="#C9B0A0"/>
<path transform="translate(366,601)" d="m0 0 6 3 1 3 6 1 4 4 1 4-5-1v-2l-5-1-9-3v-2l5-1-4-3z" fill="#8B8672"/>
<path transform="translate(734,584)" d="m0 0h4v10h-4l-1 5h-9l-4-1-1-5 6 1v4l5-2h3l-1-3 1-3v-3l2-1z" fill="#8B8672"/>
<path transform="translate(752,574)" d="m0 0h5v10l-4 4-5-1v-3h3v-9z" fill="#86816E"/>
<path transform="translate(636,565)" d="m0 0h12l2 2v4h-13l-2-5z" fill="#B89179"/>
<path transform="translate(258,652)" d="m0 0 9 3v1l7 1 1 1 10 1 1-4h3l-1 5-3 1h-10l-5-2-11-1z" fill="#F0E9E5"/>
<path transform="translate(760,671)" d="m0 0h31l-3 2-14 1h-16v-2z" fill="#41403E"/>
<path transform="translate(888,132)" d="m0 0h7l8 4 2 3-1 10h-1v-8h-3v-2l-3-1v-2l-11-1z" fill="#444240"/>
<path transform="translate(1031 1e3)" d="m0 0m-1 1m-2 1h2v3h2v2l-8 1v5h-5l-2-3v-3l7-2z" fill="#504743"/>
<path transform="translate(352,447)" d="m0 0 8 1 1 3 2 2-20 1 5-4z" fill="#BA917A"/>
<path transform="translate(201,325)" d="m0 0h7l1 2-10 4-13-1-1-2z" fill="#42403E"/>
<path transform="translate(685,562)" d="m0 0 3 3 2 5v22l-2-2-1-16-4-11z" fill="#FDFDFD"/>
<path transform="translate(351,477)" d="m0 0h18v3l-2 1h-16z" fill="#383738"/>
<path transform="translate(367,448)" d="m0 0h15l-4 1v2l2 1-4 2h-12l4-2-3-2z" fill="#383738"/>
<path transform="translate(303,537)" d="m0 0 4 1 2 9 1 8-3 2-3-11z" fill="#605A51"/>
<path transform="translate(1149,879)" d="m0 0h1v9l-3 4-1-2-1 2h-5l6-10z" fill="#675E5B"/>
<path transform="translate(424,771)" d="m0 0 10 10v4l-7 4 1-9-5-4z" fill="#BA9D89"/>
<path transform="translate(1047,270)" d="m0 0 4 2-12 8-4-1 1-4 4-2 1 1 2-3z" fill="#554C48"/>
<path transform="translate(1131,601)" d="m0 0 5 3 4 7 4 11-1 3-7-13-4-6z" fill="#C2A18D"/>
<path transform="translate(408,890)" d="m0 0v3l-3 3-2 5-4 6-3-1 2-6v-2l3-1 2-5h3z" fill="#D3C5BA"/>
<path transform="translate(1195,310)" d="m0 0h20v1l-33 3-9 3 1-3 12-3z" fill="#908772"/>
<path transform="translate(418,794)" d="m0 0h5v15l-3-4-1-4-2-1-1-5z" fill="#F5F0ED"/>
<path transform="translate(347,127)" d="m0 0h3v4l-6 3-5 7h-2v-9l10-2z" fill="#F4EEEB"/>
<path transform="translate(1253,295)" d="m0 0 3 3 12 22 1 2-5-1-3-9-8-15z" fill="#A28E79"/>
<path transform="translate(315,503)" d="m0 0 2 1 1 16-1-2-3-1-1-4v-8z" fill="#8C8672"/>
<path transform="translate(1061,978)" d="m0 0m-1 1m-1 1 1 3-3 3h-2v2h-2l-1 6-3 1v-3l-2-1 10-10z" fill="#494544"/>
<path transform="translate(736,837)" d="m0 0 1 3-5 12-4 9-2 5-1-4 6-16z" fill="#978974"/>
<path transform="translate(886,135)" d="m0 0h9l5 5-5-1-2-2-8 1-7 3-8 4 2-4 10-4z" fill="#958873"/>
<path transform="translate(387,588)" d="m0 0 9 3 9 4v3l-5-1-11-6z" fill="#3C3B3A"/>
<path transform="translate(646,562)" d="m0 0h7l-2 1v2h9v1h-6v2l2 1-6 2-2-5-3-1z" fill="#A78974"/>
<path transform="translate(878,104)" d="m0 0 4 1-4 3h-2l-1 3-4 2-5 3-1-3 4-1-1-4 10-2z" fill="#DEC8BC"/>
<path transform="translate(383,721)" d="m0 0h12l-3 4h-11l-3-2z" fill="#CDB2A2"/>
<path transform="translate(683,577)" d="m0 0 1 3h2l1 8v11l-4 1 1-7v-3z" fill="#8B8672"/>
<path transform="translate(140,333)" d="m0 0 4 1-2 3v11l1 3-3-1-2-4v-10z" fill="#CDC2B7"/>
<path transform="translate(1067,975)" d="m0 0h2v2l-2 1-1 3-4 1-2 5h-4l-1 5-2-1v-3h2v-2l3-3h2l1-4z" fill="#8D7D70"/>
<path transform="translate(267,655)" d="m0 0h18v4h-10l-1-3h-7z" fill="#B08F78"/>
<path transform="translate(354,446)" d="m0 0 13 1 2 6h-6l-3-3v-1l-7-1z" fill="#736F61"/>
<path transform="translate(1149,316)" d="m0 0 1 4-3 10-1 7-2-3v-7l4-10z" fill="#928773"/>
<path transform="translate(458,31)" d="m0 0h8l1 4-2 8-2-4z" fill="#C6A997"/>
<path transform="translate(1117,924)" d="m0 0 3 1h-2v5l-4 1-1 4-4 2-2-2 3-3z" fill="#CDAD9B"/>
<path transform="translate(356,590)" d="m0 0 3 2 2-1v3l4 2 6 5v2l-5-2-9-7-3-3z" fill="#383C34"/>
<path transform="translate(591,439)" d="m0 0 3 1-9 5-11 3h-9v-1l15-3 7-3z" fill="#2E332B"/>
<path transform="translate(145,354)" d="m0 0 5 2 7 7-2 1h-5v-2l-3-1z" fill="#D0C7BD"/>
<path transform="translate(372,602)" d="m0 0 5 2 3 3 9 5-4 1-9-5-3-1-2-4z" fill="#35402C"/>
<path transform="translate(183,376)" d="m0 0 14 3h2v2l5 1v1l-10-1-11-4z" fill="#AD8A77"/>
<path transform="translate(518,346)" d="m0 0 3 4 3 11v3l-4-2-2-11z" fill="#6A7750"/>
<path transform="translate(898,75)" d="m0 0h12l5 2v1h-17z" fill="#A08372"/>
<path transform="translate(285,490)" d="m0 0h1v13l-1 7h-1l-1-5v-11z" fill="#B9A08D"/>
<path transform="translate(1239,246)" d="m0 0h5v2l2 1v3l1 3-5-2-5-5z" fill="#FDFDFD"/>
<path transform="translate(1129,906)" d="m0 0 1 3-1 3h-2l-1 4h-4l-1 3v-5z" fill="#504844"/>
<path transform="translate(375,607)" d="m0 0 5 2 3 3 1 4-5-1v-2h-3l-3-5z" fill="#988974"/>
<path transform="translate(340,455)" d="m0 0 5 2 1-2 1 3-7 2 1 2h-9l4-4h3z" fill="#655A50"/>
<path transform="translate(645,565)" d="m0 0 5 1v4h-10l1-4z" fill="#FDFDFD"/>
<path transform="translate(706,851)" d="m0 0h3l-1 5h-2l-2 10h-2l1-8z" fill="#9A8E7A"/>
<path transform="translate(515,662)" d="m0 0 4 2 6 5 5 5 2 3-4-1-8-7z" fill="#C0937B"/>
<path transform="translate(424,653)" d="m0 0 7 1v3l6-2-1 3-5 1-6-1z" fill="#8B8672"/>
<path transform="translate(486,617)" d="m0 0h4v8l4 2-7-1-1-2z" fill="#BE9B86"/>
<path transform="translate(444,585)" d="m0 0h4v9h-9v-1h5l-1-4 1-2 3-1z" fill="#686358"/>
<path transform="translate(878,488)" d="m0 0h3v2l-2 1-2 6-3 2h-4v-2l5-5z" fill="#D2C0B3"/>
<path transform="translate(373,482)" d="m0 0h3 2v10l-4-1z" fill="#383738"/>
<path transform="translate(763,330)" d="m0 0 2 2 3 10v4h-2l-3-6z" fill="#0A0909"/>
<path transform="translate(300,200)" d="m0 0h2l-2 5-6 9-1-4 4-8h3z" fill="#D3B4A4"/>
<path transform="translate(754,873)" d="m0 0 2 2 1 9-5-1v-8z" fill="#8B8672"/>
<path transform="translate(327,487)" d="m0 0h5v3l-10 1v5h-3l-1-5 8-1z" fill="#504E49"/>
<path transform="translate(333,482)" d="m0 0h9l-2 1v3l-8 1z" fill="#615F54"/>
<path transform="translate(355,117)" d="m0 0 4 1-5 7-4 2 1-8 2-1v2h2z" fill="#DDC6BA"/>
<path transform="translate(1042,799)" d="m0 0h1v19h3v2h-2v2l2 1-2 1-2-1z" fill="#67625C"/>
<path transform="translate(361,631)" d="m0 0 12 2-1 2h-11z" fill="#B39078"/>
<path transform="translate(275,608)" d="m0 0h5l-1 3h-2l-2 5-4 5 1-7 2-1z" fill="#CCAA98"/>
<path transform="translate(355 1e3)" d="m0 0h1v12l-2 6h-1v-11z" fill="#3C4647"/>
<path transform="translate(1081,964)" d="m0 0 2 2-3 6-7 2 2-4 5-4z" fill="#CCA895"/>
<path transform="translate(1083,245)" d="m0 0h11l-1 2-10 2-1 3-1-4z" fill="#D2B4A4"/>
<path transform="translate(756,584)" d="m0 0h9l-3 1v3h-9l-1-2z" fill="#9C8A75"/>
<path transform="translate(679,501)" d="m0 0h9l2 2-1 1h-12v-2z" fill="#4C702D"/>
<path transform="translate(267,294)" d="m0 0h5l-4 3-4 2h-6l2-1 1-3z" fill="#C3AC9C"/>
<path transform="translate(692,599)" d="m0 0h9v3l-10 1z" fill="#807C6A"/>
<path transform="translate(691,566)" d="m0 0 2 3 3 9v8h-1v-7h-2l-2-9z" fill="#8B8672"/>
<path transform="translate(677,505)" d="m0 0h11v1l-5 1 1 2h-8z" fill="#383738"/>
<path transform="translate(439,851)" d="m0 0 3 2v8h-2l-1 3-1-2z" fill="#C39983"/>
<path transform="translate(719,579)" d="m0 0 1 2-1 4-2 1-1 3h3v4h-4v-8l3-1z" fill="#8B8672"/>
<path transform="translate(752,574)" d="m0 0h5v5l-3 1-3-2z" fill="#383738"/>
<path transform="translate(415,571)" d="m0 0 7 1 5 3v4l-3-1v-2l-9-3z" fill="#5A665C"/>
<path transform="translate(436,290)" d="m0 0 1 3-6 12h-2l2-5z" fill="#31342F"/>
<path transform="translate(687,800)" d="m0 0 1 4-2 6-3-1-1-6 2-2v3l2-1z" fill="#AD9A88"/>
<path transform="translate(661,557)" d="m0 0h7v4h-8z" fill="#FDFDFD"/>
<path transform="translate(318,496)" d="m0 0 1 2 2 1h-3v5l-5-1v-4h4z" fill="#5E5850"/>
<path transform="translate(1200,236)" d="m0 0h12l5 2v1h-7l-10-2z" fill="#D7C1B4"/>
<path transform="translate(1209,370)" d="m0 0v3l-3 4h-14v-1l13-2z" fill="#C09C87"/>
<path transform="translate(1247,321)" d="m0 0h1l-1 7-6 1-2-2 5-3h3z" fill="#C7A895"/>
<path transform="translate(710,158)" d="m0 0 4 1-5 4h-7l3-2-1-2z" fill="#BFA694"/>
<path transform="translate(345,132)" d="m0 0 2 1-7 10-1 3-2-1v-3h2l2-5z" fill="#BE9983"/>
<path transform="translate(728,792)" d="m0 0 1 4-2 8h-2l1-9z" fill="#8C8672"/>
<path transform="translate(515,653)" d="m0 0h7v1l-8 2 1 6-4-3 1-5z" fill="#C0937B"/>
<path transform="translate(303,537)" d="m0 0 4 1 2 11-2-1-2-5-2-3z" fill="#383738"/>
<path transform="translate(354,1059)" d="m0 0 2 3 2 6v5l-3-4-1-3z" fill="#444340"/>
<path transform="translate(430,646)" d="m0 0h5l-1 5h-4l-1-4z" fill="#383738"/>
<path transform="translate(490,617)" d="m0 0 2 4 4 2-1 3-5-1z" fill="#FDFDFD"/>
<path transform="translate(729,593)" d="m0 0 4 1v2l-5 2h-3v-4z" fill="#C0937B"/>
<path transform="translate(726,586)" d="m0 0 3 1v7h-4z" fill="#8B8672"/>
<path transform="translate(345,578)" d="m0 0 4 2 2 7-4 1-1-5z" fill="#8B8672"/>
<path transform="translate(407,562)" d="m0 0 3 2v2h3v2h2v3l-5-2-4-5z" fill="#44443E"/>
<path transform="translate(673,504)" d="m0 0h16v1l-12 1-2 3-3-3z" fill="#1B2B10"/>
<path transform="translate(521,363)" d="m0 0 2 1v13l-2-3-1-10z" fill="#8B8672"/>
<path transform="translate(1262,314)" d="m0 0h3l4 8-5-1z" fill="#CBB8AA"/>
<path transform="translate(749,289)" d="m0 0h3l1 6h-5v-5z" fill="#383738"/>
<path transform="translate(1212,357)" d="m0 0h1v13l-2-4z" fill="#FDFDFD"/>
<path transform="translate(730,680)" d="m0 0 4 1-9 2 1-2z" fill="#5D5A52"/>
<path transform="translate(721,684)" d="m0 0 2 1-5 2z" fill="#4F4D48"/>
<path transform="translate(862,513)" d="m0 0h2l-1 4z" fill="#FDFDFD"/>
<path transform="translate(277,484)" d="m0 0 3 1-4 1z" fill="#FDFDFD"/>
<path transform="translate(1133,403)" d="m0 0 1 4h-2z" fill="#AA9384"/>
<path transform="translate(1115,932)" d="m0 0h2l-1 3z" fill="#FDFDFD"/>
<path transform="translate(916,759)" d="m0 0 2 1-1 3z" fill="#59564F"/>
<path transform="translate(735,679)" d="m0 0h5v1h-5z" fill="#69665A"/>
<path transform="translate(270,483)" d="m0 0h5v1h-5z" fill="#FDFDFD"/>
<path transform="translate(239,305)" d="m0 0 3 1-3 1z" fill="#FDFDFD"/>
<path transform="translate(1026,1012)" d="m0 0h2v2h-2z" fill="#DEC8BC"/>
<path transform="translate(1152,881)" d="m0 0h2v2h-2z" fill="#CFAD9B"/>
<path transform="translate(221,314)" d="m0 0h2v2h-2z" fill="#CFAD9B"/>
<path transform="translate(388,75)" d="m0 0h2v2h-2z" fill="#EDE2DC"/>
<path transform="translate(791,833)" d="m0 0h2l-1 2z" fill="#383738"/>
<path transform="translate(754,735)" d="m0 0 2 2h-2z" fill="#53514B"/>
<path transform="translate(745,721)" d="m0 0 2 2h-2z" fill="#6F6B5E"/>
<path transform="translate(922,578)" d="m0 0 2 1-2 1z" fill="#42403A"/>
<path transform="translate(291,574)" d="m0 0" fill="#D4B6A6"/>
<path transform="translate(1114,469)" d="m0 0" fill="#FDFDFD"/>
<path transform="translate(895,465)" d="m0 0 1 2-2-1z" fill="#6F6B5E"/>
<path transform="translate(973,328)" d="m0 0 2 2h-2z" fill="#65554E"/>
<path transform="translate(146,328)" d="m0 0h2l-1 2z" fill="#E8D9D1"/>
<path transform="translate(640,179)" d="m0 0 3 1z" fill="#E8D9D1"/>
<path transform="translate(790,136)" d="m0 0 1 2-2-1z" fill="#C0937B"/>
<path transform="translate(1058,989)" d="m0 0" fill="#FDFDFD"/>
<path transform="translate(1063,984)" d="m0 0 2 1z" fill="#FDFDFD"/>
<path transform="translate(375,936)" d="m0 0" fill="#C0937B"/>
<path transform="translate(1124,918)" d="m0 0" fill="#7C6559"/>
<path transform="translate(847,885)" d="m0 0 2 1z" fill="#615E55"/>
<path transform="translate(417,879)" d="m0 0" fill="#C4C1B7"/>
<path transform="translate(723,683)" d="m0 0 2 1z" fill="#383738"/>
<path transform="translate(1162,658)" d="m0 0" fill="#FDFDFD"/>
<path transform="translate(1161,656)" d="m0 0" fill="#FDFDFD"/>
<path transform="translate(1137,603)" d="m0 0" fill="#FDFDFD"/>
<path transform="translate(917,581)" d="m0 0 2 1z" fill="#615E55"/>
<path transform="translate(924,577)" d="m0 0 2 1z" fill="#615E55"/>
<path transform="translate(142,353)" d="m0 0" fill="#FDFDFD"/>
<path transform="translate(248,305)" d="m0 0 2 1z" fill="#7C6559"/>
<path transform="translate(244,305)" d="m0 0 2 1z" fill="#DEC8BC"/>
<path transform="translate(747,150)" d="m0 0 2 1z" fill="#DEC8BC"/>
<path transform="translate(352,1205)" d="m0 0" fill="#FDFDFD"/>
<path transform="translate(358,1146)" d="m0 0" fill="#FDFDFD"/>
<path transform="translate(1073,976)" d="m0 0" fill="#C0937B"/>
<path transform="translate(1072,975)" d="m0 0" fill="#FDFDFD"/>
<path transform="translate(1070,975)" d="m0 0" fill="#C0937B"/>
<path transform="translate(1110,938)" d="m0 0" fill="#FDFDFD"/>
<path transform="translate(849,886)" d="m0 0" fill="#383738"/>
<path transform="translate(426,871)" d="m0 0" fill="#FDFDFD"/>
<path transform="translate(819,862)" d="m0 0" fill="#8B8672"/>
<path transform="translate(783,820)" d="m0 0" fill="#383738"/>
<path transform="translate(418,806)" d="m0 0" fill="#FDFDFD"/>
<path transform="translate(418,802)" d="m0 0" fill="#FDFDFD"/>
<path transform="translate(1163,662)" d="m0 0" fill="#FDFDFD"/>
<path transform="translate(1160,654)" d="m0 0" fill="#C0937B"/>
<path transform="translate(269,619)" d="m0 0" fill="#FDFDFD"/>
<path transform="translate(268,618)" d="m0 0" fill="#FDFDFD"/>
<path transform="translate(973,613)" d="m0 0" fill="#8B8672"/>
<path transform="translate(937,610)" d="m0 0" fill="#8B8672"/>
<path transform="translate(936,609)" d="m0 0" fill="#383738"/>
<path transform="translate(1138,605)" d="m0 0" fill="#FDFDFD"/>
<path transform="translate(931,605)" d="m0 0" fill="#383738"/>
<path transform="translate(960,584)" d="m0 0" fill="#8B8672"/>
<path transform="translate(914,583)" d="m0 0" fill="#383738"/>
<path transform="translate(919,580)" d="m0 0" fill="#383738"/>
<path transform="translate(942,567)" d="m0 0" fill="#383738"/>
<path transform="translate(880,529)" d="m0 0" fill="#C0937B"/>
<path transform="translate(253,479)" d="m0 0" fill="#8B8672"/>
<path transform="translate(1137,400)" d="m0 0" fill="#FDFDFD"/>
<path transform="translate(219,385)" d="m0 0" fill="#FDFDFD"/>
<path transform="translate(159,366)" d="m0 0" fill="#C0937B"/>
<path transform="translate(158,365)" d="m0 0" fill="#FDFDFD"/>
<path transform="translate(951,363)" d="m0 0" fill="#FDFDFD"/>
<path transform="translate(1217,330)" d="m0 0" fill="#383738"/>
<path transform="translate(154,328)" d="m0 0" fill="#FDFDFD"/>
<path transform="translate(984,319)" d="m0 0" fill="#C0937B"/>
<path transform="translate(992,305)" d="m0 0" fill="#FDFDFD"/>
<path transform="translate(1e3 300)" d="m0 0" fill="#C0937B"/>
<path transform="translate(268,291)" d="m0 0" fill="#FDFDFD"/>
<path transform="translate(1030,277)" d="m0 0" fill="#FDFDFD"/>
<path transform="translate(1044,268)" d="m0 0" fill="#C0937B"/>
<path transform="translate(574,188)" d="m0 0" fill="#8B8672"/>
<path transform="translate(305,188)" d="m0 0" fill="#FDFDFD"/>
<path transform="translate(659,174)" d="m0 0" fill="#C0937B"/>
<path transform="translate(744,151)" d="m0 0" fill="#FDFDFD"/>
<path transform="translate(329,151)" d="m0 0" fill="#FDFDFD"/>
<path transform="translate(917,77)" d="m0 0" fill="#C0937B"/>
<path transform="translate(468,32)" d="m0 0" fill="#FDFDFD"/>
</svg>
